<svg xmlns="http://www.w3.org/2000/svg" viewBox="0 0 64 64">
  <defs>
    <linearGradient id="g" x1="0" x2="1" y1="0" y2="1">
      <stop offset="0%" stop-color="#0f172a" />
      <stop offset="100%" stop-color="#1e3a8a" />
    </linearGradient>
  </defs>
  <rect width="64" height="64" rx="14" fill="url(#g)" />
  <path
    d="M32 14c-9.94 0-18 8.06-18 18s8.06 18 18 18 18-8.06 18-18-8.06-18-18-18zm0 6c2.94 0 5.74.71 8.21 1.97-2.18 1.7-5.13 4.03-8.21 4.03s-6.03-2.33-8.21-4.03A18 18 0 0 1 32 20zm0 24c-2.94 0-5.74-.71-8.21-1.97 2.18-1.7 5.13-4.03 8.21-4.03s6.03 2.33 8.21 4.03A18 18 0 0 1 32 44zm-12-12c0-2.07.36-4.05 1.01-5.89C23.97 28.79 28 32 32 32s8.03-3.21 10.99-5.89A18 18 0 0 1 44 32c0 2.07-.36 4.05-1.01 5.89C40.03 35.21 36 32 32 32s-8.03 3.21-10.99 5.89A18 18 0 0 1 20 32z"
    fill="#f8fafc"
  />
</svg>
